<svg xmlns="http://www.w3.org/2000/svg" viewBox="0 0 2048 1339">
<style>
  .logo-main { fill: #1a1a1a; }
  @media (prefers-color-scheme: dark) {
    .logo-main { fill: #F5F0E8; }
  }
  :root.dark .logo-main { fill: #F5F0E8; }
</style>
<path class="logo-main" d="M 1023.81 308.33 C 1053.86 305.018 1084.79 313.623 1109.69 330.378 C 1162.08 365.631 1163.86 428.183 1143.28 482.016 C 1134.28 505.542 1122.7 523.544 1108.47 543.941 L 1242.52 543.966 C 1216.95 618.122 1174.17 670.497 1121.7 725.958 L 1121.48 754.013 C 1116.04 754.128 1111.32 754.312 1105.87 753.771 C 1104.35 751.649 1104.7 749.047 1104.47 746.031 L 1103.66 745.418 C 1091.81 754.039 1035.93 820.464 1027.72 833.105 L 1172.47 833.05 C 1152.61 845.922 1138.28 864.221 1120.34 879.586 C 1105.76 892.07 1081.31 888.171 1062.27 888.101 L 995.706 888.061 L 995.135 889.35 C 965.723 956.494 974.846 1028.37 1049.38 1063.06 C 1078.1 1076.43 1134.14 1075.29 1146.06 1038.42 C 1157.65 1002.57 1155.04 960.356 1140.13 925.157 C 1159.23 909.918 1189.4 884.379 1208.7 871.363 C 1227.89 916.26 1227.78 966.314 1200.52 1008.44 C 1182.31 1036.58 1157.66 1053.47 1132.34 1074.25 C 1103.24 1098.13 1081.64 1116.04 1044.05 1123.89 C 1011.58 1126.8 982.546 1120.16 955.548 1101.74 C 904.546 1066.96 901.706 1007.32 920.977 954.075 C 930.291 928.34 941.926 910.136 957.45 888.018 L 822.897 888.01 C 841.46 838.769 868.114 792.971 901.758 752.507 C 915.639 735.985 930.256 721.82 944.019 705.666 L 944.078 678.284 C 947.813 678.21 956.529 677.654 959.956 678.706 C 960.952 679.012 961.035 683.935 961.669 686.494 C 969.749 683.927 1030.05 610.26 1038.31 599.19 C 990.127 598.329 941.322 599.619 892.966 598.802 C 909.86 590.179 923.484 572.515 937.321 559.631 C 943.272 554.091 949.421 548.088 957.352 545.575 C 970.124 541.529 1050.61 543.97 1070.17 544.031 C 1097.68 474.444 1094.05 409.174 1018.79 370.571 C 990.38 355.997 933.218 355.809 920.194 392.257 C 907.318 428.291 910.928 471.837 925.378 507.332 C 902.509 525.219 879.809 543.32 857.282 561.635 C 851.057 547.817 847.31 537.649 845.12 523.011 C 833.271 443.791 878.219 397.603 938.007 354.09 C 967.725 332.462 984.148 314.246 1023.81 308.33 z"/>
<path class="logo-main" d="M 1024.24 677.209 C 1045.7 672.517 1066.92 686.064 1071.69 707.507 C 1076.46 728.949 1062.99 750.211 1041.56 755.06 C 1020.03 759.935 998.63 746.38 993.835 724.826 C 989.04 703.272 1002.67 681.925 1024.24 677.209 z"/>
<path class="logo-main" d="M 841.258 678.281 C 868.811 677.907 908.254 673.95 911.265 712.532 C 912.317 726.001 909.237 733.637 900.515 743.827 C 884.132 757.072 861.77 754.14 841.268 753.935 C 841.115 728.717 841.112 703.499 841.258 678.281 z"/>
<path class="logo-main" d="M 1196.35 678.427 C 1205.09 678.025 1215.48 678.232 1224.35 678.186 L 1224.42 754.079 C 1213.38 754.109 1193.49 754.668 1183.16 753.005 C 1176.26 751.009 1171.61 749.236 1166.27 744.597 C 1143.6 724.904 1153.05 685.694 1183.03 679.74 C 1187.58 678.836 1191.87 678.674 1196.35 678.427 z"/>
<path class="logo-main" d="M 737.634 678.288 L 754.756 678.212 C 754.813 687.936 751.678 730.424 759.424 735.262 C 796.778 758.593 788.353 697.655 788.399 678.267 L 806.017 678.209 L 806.013 693.301 C 806.096 709.132 808.922 734.94 796.989 746.739 C 785.732 758.347 756.529 758.133 745.797 746.114 C 733.285 732.102 737.284 697.033 737.634 678.288 z"/>
<path class="logo-main" d="M 584.924 677.211 C 599.288 676.497 607.582 679.737 618.775 688.109 L 608.904 700.12 C 602.443 695.578 576.294 684.534 577.449 699.778 C 580.674 704.098 590.736 706.706 595.976 707.922 C 629.682 715.745 628.723 750.688 592.366 755.118 C 576.469 755.22 569.382 753.12 557.073 743.248 C 560.373 738.147 562.612 735.178 566.466 730.458 C 574.195 736.684 590.868 745.861 601.099 735.948 C 602.662 734.434 602.288 733.572 602.024 731.521 C 594.656 721.86 562.541 723.702 559.873 704.51 C 557.474 687.253 569.995 679.784 584.924 677.211 z"/>
<path class="logo-main" d="M 1289.12 677.257 C 1338.07 675.03 1328.24 718.898 1328.07 754.048 L 1310.96 753.863 C 1310.73 742.913 1311.37 731.843 1311.26 720.891 C 1311.14 709.03 1312.34 699.01 1300.44 692.988 C 1267.73 688.219 1277.05 731.391 1277.22 754.084 L 1259.72 754.044 C 1259.67 746.159 1259.62 737.967 1259.52 730.112 C 1259.2 703.632 1257.45 682.037 1289.12 677.257 z"/>
<path class="logo-main" d="M 1471.45 677.257 C 1487.64 676.571 1495.9 679.234 1508.55 689.079 C 1506 693.189 1502.21 697.881 1499.21 701.805 C 1490.52 695.284 1473.11 685.507 1462.71 697.77 C 1461.87 698.769 1462.44 699.394 1462.82 700.661 C 1471.37 710.193 1498.6 708.758 1504.7 724.343 C 1510.16 738.266 1500.74 747.891 1489.16 753.514 C 1487.97 753.788 1486.77 754.029 1485.57 754.234 C 1469.68 756.931 1459.86 753.67 1447.15 744.769 C 1450.42 739.808 1452.44 737.279 1456.34 732.754 C 1461.98 735.784 1489.61 748.072 1487.93 732.679 C 1482.12 725.182 1462.61 725.028 1455.11 718.303 C 1434.23 699.582 1449.45 680.64 1471.45 677.257 z"/>
<path class="logo-main" d="M 645.335 678.225 L 706.121 678.224 L 706.04 693.758 L 684.865 693.816 L 684.938 733.5 L 685.003 753.909 L 667.381 753.934 C 666.662 735.04 667.186 712.922 667.172 693.783 L 645.194 693.846 L 645.335 678.225 z"/>
<path class="logo-main" d="M 1380.88 678.296 L 1398.21 678.159 C 1398.54 698.156 1398.29 718.861 1398.31 738.915 L 1420.36 738.993 L 1420.42 754.026 L 1397.5 754.023 C 1384.82 754.049 1372.13 753.994 1359.45 753.855 C 1359.22 749.224 1359.53 743.802 1359.69 739.095 L 1380.81 738.972 L 1380.88 678.296 z"/>
</svg>
